# xmcd
#
# Track frame offsets: 
#        150
#        19310
#        31027
#        46622
#
# Disc length: 919 seconds
#
# Revision: 0
# Processed by: cddbd v1.5.2PL0 Copyright (c) Steve Scherf et al.
# Submitted via: ExactAudioCopy v1.3
#
DISCID=21039504
DTITLE=Barrelhouse - Tell Me More
DYEAR=1995
DGENRE=Blues
TTITLE0=Tell Me More
TTITLE1=Dirty Dozen
TTITLE2=Worrying You Off My Mind
TTITLE3=Beware
EXTD=
EXTT0=
EXTT1=
EXTT2=
EXTT3=
PLAYORDER=
